<?xml version="1.0" encoding="utf-8"?>
<!-- Generator: Adobe Illustrator 24.0.1, SVG Export Plug-In . SVG Version: 6.00 Build 0)  -->
<svg version="1.1" id="Warstwa_1" xmlns="http://www.w3.org/2000/svg" xmlns:xlink="http://www.w3.org/1999/xlink" x="0px" y="0px"
	 viewBox="0 0 1605 136" style="enable-background:new 0 0 1605 136;" xml:space="preserve">
<style type="text/css">
	.st0{fill:#FFFFFF;}
</style>
<g>
	<path class="st0" d="M32.03,45.94v78.42h-17.5V15.01h18.59l37.34,69.67l37.49-69.67h17.5v109.35h-17.34V45.94l-33.27,61.24h-9.53
		L32.03,45.94z"/>
	<path class="st0" d="M174.61,15.01h18.59v109.35h-18.59V15.01z"/>
	<path class="st0" d="M252.37,29.85c11.09-10.94,24.66-16.4,40.7-16.4c5.21,0,10.15,0.6,14.84,1.8s8.57,2.63,11.64,4.3
		s5.78,3.33,8.12,5s4.04,3.07,5.08,4.22l1.56,1.88l-13.12,11.4c-0.31-0.31-0.7-0.75-1.17-1.33c-0.47-0.57-1.61-1.54-3.44-2.89
		c-1.82-1.35-3.75-2.55-5.78-3.59c-2.03-1.04-4.66-2.01-7.89-2.89c-3.23-0.89-6.61-1.33-10.15-1.33c-11.04,0-20.31,3.8-27.81,11.4
		S253.7,58.43,253.7,69.68c0,11.25,3.75,20.67,11.25,28.28c7.5,7.6,16.77,11.4,27.81,11.4c3.65,0,7.19-0.47,10.62-1.41
		c3.44-0.94,6.27-2.06,8.51-3.36c2.24-1.3,4.22-2.63,5.94-3.98c1.72-1.35,2.97-2.47,3.75-3.36c0.78-0.89,1.17-1.38,1.17-1.48
		l12.5,11.4c-0.42,0.52-0.99,1.2-1.72,2.03s-2.42,2.32-5.08,4.45c-2.66,2.14-5.49,4.04-8.51,5.7c-3.02,1.67-7,3.18-11.95,4.53
		c-4.95,1.35-10.13,2.03-15.54,2.03c-16.04,0-29.5-5.36-40.38-16.09S235.73,85.83,235.73,70C235.73,54.16,241.28,40.78,252.37,29.85
		z"/>
	<path class="st0" d="M447.27,75.15h-56.24v49.21h-17.97V15.01h17.97v44.21h56.24V15.01h17.97v109.35h-17.97V75.15z"/>
	<path class="st0" d="M610.15,124.36h-19.68l-11.09-27.34h-48.58l-11.09,27.34h-18.9l45.77-109.35h17.97L610.15,124.36z
		 M535.79,82.81h38.27l-19.06-47.18L535.79,82.81z"/>
	<path class="st0" d="M645.72,124.36V15.01h17.97v93.42h57.02v15.93H645.72z"/>
	<path class="st0" d="M872.55,15.01c10,0,18.04,2.58,24.14,7.73s9.14,11.74,9.14,19.76c0,5.31-1.43,10.13-4.3,14.45
		s-6.8,7.68-11.79,10.08c6.56,1.98,11.72,5.39,15.47,10.23c3.75,4.84,5.62,10.54,5.62,17.11c0,8.54-3.33,15.67-10,21.4
		c-6.67,5.73-15.21,8.59-25.62,8.59h-49.52V15.01H872.55z M868.95,61.25c5.73,0,10.31-1.54,13.75-4.61
		c3.44-3.07,5.16-6.9,5.16-11.48c0-4.48-1.72-8.28-5.16-11.4c-3.44-3.12-8.02-4.69-13.75-4.69h-25.31v32.18H868.95z M843.65,110.3
		h28.59c6.25,0,11.25-1.72,15-5.16c3.75-3.44,5.62-7.71,5.62-12.81s-1.88-9.37-5.62-12.81s-8.75-5.16-15-5.16h-28.59V110.3z"/>
	<path class="st0" d="M1044.37,29.53c10.83,10.73,16.25,24.01,16.25,39.84s-5.52,29.21-16.56,40.15
		c-11.04,10.94-24.63,16.4-40.77,16.4c-16.04,0-29.5-5.36-40.38-16.09C952.02,99.1,946.57,85.83,946.57,70
		c0-15.83,5.55-29.21,16.64-40.15c11.09-10.94,24.66-16.4,40.7-16.4C1020.05,13.44,1033.54,18.81,1044.37,29.53z M1031.48,97.96
		c7.45-7.6,11.17-17.03,11.17-28.28c0-11.25-3.72-20.67-11.17-28.28c-7.45-7.6-16.74-11.4-27.88-11.4c-11.04,0-20.31,3.8-27.81,11.4
		c-7.5,7.6-11.25,17.03-11.25,28.28c0,11.25,3.75,20.67,11.25,28.28c7.5,7.6,16.77,11.4,27.81,11.4
		C1014.74,109.36,1024.03,105.56,1031.48,97.96z"/>
	<path class="st0" d="M1103.23,15.01h47.18c11.25,0,20.39,3.2,27.42,9.61c7.03,6.4,10.54,14.66,10.54,24.76
		c0,7.81-2.26,14.66-6.79,20.54c-4.53,5.88-10.65,9.87-18.36,11.95l29.84,42.49h-21.09l-27.65-40.15h-23.12v40.15h-17.97V15.01z
		 M1121.19,30.32v39.84h27.03c6.77,0,12.16-1.88,16.17-5.62c4.01-3.75,6.01-8.54,6.01-14.37c0-5.83-2-10.6-6.01-14.29
		c-4.01-3.7-9.4-5.55-16.17-5.55H1121.19z"/>
	<path class="st0" d="M1320.29,15.01v64.52c0,13.75-4.24,24.92-12.73,33.51c-8.49,8.59-19.45,12.89-32.88,12.89
		c-13.33,0-24.16-4.19-32.49-12.58s-12.5-19.45-12.5-33.2V15.01h18.28v64.67c0,8.85,2.55,16.01,7.65,21.48
		c5.1,5.47,11.67,8.2,19.68,8.2c8.12,0,14.71-2.71,19.76-8.12c5.05-5.42,7.58-12.6,7.58-21.56V15.01H1320.29z"/>
	<path class="st0" d="M1377.65,29.85c11.09-10.94,24.66-16.4,40.7-16.4c5.21,0,10.15,0.6,14.84,1.8s8.57,2.63,11.64,4.3
		s5.78,3.33,8.12,5c2.34,1.67,4.04,3.07,5.08,4.22l1.56,1.88l-13.12,11.4c-0.31-0.31-0.7-0.75-1.17-1.33
		c-0.47-0.57-1.61-1.54-3.44-2.89c-1.82-1.35-3.75-2.55-5.78-3.59c-2.03-1.04-4.66-2.01-7.89-2.89c-3.23-0.89-6.61-1.33-10.15-1.33
		c-11.04,0-20.31,3.8-27.81,11.4c-7.5,7.6-11.25,17.03-11.25,28.28c0,11.25,3.75,20.67,11.25,28.28c7.5,7.6,16.77,11.4,27.81,11.4
		c3.65,0,7.19-0.47,10.62-1.41c3.44-0.94,6.27-2.06,8.51-3.36s4.22-2.63,5.94-3.98c1.72-1.35,2.97-2.47,3.75-3.36
		c0.78-0.89,1.17-1.38,1.17-1.48l12.5,11.4c-0.42,0.52-0.99,1.2-1.72,2.03c-0.73,0.83-2.42,2.32-5.08,4.45
		c-2.66,2.14-5.49,4.04-8.51,5.7c-3.02,1.67-7,3.18-11.95,4.53s-10.13,2.03-15.54,2.03c-16.04,0-29.5-5.36-40.38-16.09
		c-10.88-10.73-16.33-24.01-16.33-39.84C1361.01,54.16,1366.56,40.78,1377.65,29.85z"/>
	<path class="st0" d="M1572.54,75.15h-56.24v49.21h-17.97V15.01h17.97v44.21h56.24V15.01h17.97v109.35h-17.97V75.15z"/>
</g>
<text transform="matrix(1 0 0 1 0.4741 1186.3594)" style="font-family:'Uniform-Medium'; font-size:156.2164px; letter-spacing:23;">MICHAL BORUCH</text>
</svg>
